<mxfile host="app.diagrams.net" modified="2021-06-09T01:05:42.448Z" agent="5.0 (Windows NT 10.0; Win64; x64) AppleWebKit/537.36 (KHTML, like Gecko) Chrome/90.0.4430.72 Safari/537.36" etag="Jk1dbWG5RqBn3uOhNyQP" version="14.6.13" type="github">
  <diagram id="tki-AfUK3ZuuxOzUKFOR" name="第 1 页">
    <mxGraphModel dx="981" dy="487" grid="1" gridSize="10" guides="1" tooltips="1" connect="1" arrows="1" fold="1" page="1" pageScale="1" pageWidth="1169" pageHeight="827" math="0" shadow="0">
      <root>
        <mxCell id="0" />
        <mxCell id="1" parent="0" />
        <mxCell id="5kDlmlk_hzpcu5QNNVva-1" value="AstNode" style="swimlane;fontStyle=1;align=center;verticalAlign=top;childLayout=stackLayout;horizontal=1;startSize=26;horizontalStack=0;resizeParent=1;resizeParentMax=0;resizeLast=0;collapsible=1;marginBottom=0;" vertex="1" parent="1">
          <mxGeometry x="230" y="40" width="230" height="216" as="geometry" />
        </mxCell>
        <mxCell id="5kDlmlk_hzpcu5QNNVva-2" value="" style="line;strokeWidth=1;fillColor=none;align=left;verticalAlign=middle;spacingTop=-1;spacingLeft=3;spacingRight=3;rotatable=0;labelPosition=right;points=[];portConstraint=eastwest;" vertex="1" parent="5kDlmlk_hzpcu5QNNVva-1">
          <mxGeometry y="26" width="230" height="8" as="geometry" />
        </mxCell>
        <mxCell id="5kDlmlk_hzpcu5QNNVva-3" value="+ nextp(): AstNode*" style="text;strokeColor=none;fillColor=none;align=left;verticalAlign=top;spacingLeft=4;spacingRight=4;overflow=hidden;rotatable=0;points=[[0,0.5],[1,0.5]];portConstraint=eastwest;" vertex="1" parent="5kDlmlk_hzpcu5QNNVva-1">
          <mxGeometry y="34" width="230" height="26" as="geometry" />
        </mxCell>
        <mxCell id="5kDlmlk_hzpcu5QNNVva-4" value="+ backp(): AstNode*" style="text;strokeColor=none;fillColor=none;align=left;verticalAlign=top;spacingLeft=4;spacingRight=4;overflow=hidden;rotatable=0;points=[[0,0.5],[1,0.5]];portConstraint=eastwest;" vertex="1" parent="5kDlmlk_hzpcu5QNNVva-1">
          <mxGeometry y="60" width="230" height="26" as="geometry" />
        </mxCell>
        <mxCell id="5kDlmlk_hzpcu5QNNVva-5" value="+ op1p(): AstNode*" style="text;strokeColor=none;fillColor=none;align=left;verticalAlign=top;spacingLeft=4;spacingRight=4;overflow=hidden;rotatable=0;points=[[0,0.5],[1,0.5]];portConstraint=eastwest;" vertex="1" parent="5kDlmlk_hzpcu5QNNVva-1">
          <mxGeometry y="86" width="230" height="26" as="geometry" />
        </mxCell>
        <mxCell id="5kDlmlk_hzpcu5QNNVva-6" value="+ op2p(): AstNode*" style="text;strokeColor=none;fillColor=none;align=left;verticalAlign=top;spacingLeft=4;spacingRight=4;overflow=hidden;rotatable=0;points=[[0,0.5],[1,0.5]];portConstraint=eastwest;" vertex="1" parent="5kDlmlk_hzpcu5QNNVva-1">
          <mxGeometry y="112" width="230" height="26" as="geometry" />
        </mxCell>
        <mxCell id="5kDlmlk_hzpcu5QNNVva-7" value="+ op3p(): AstNode*" style="text;strokeColor=none;fillColor=none;align=left;verticalAlign=top;spacingLeft=4;spacingRight=4;overflow=hidden;rotatable=0;points=[[0,0.5],[1,0.5]];portConstraint=eastwest;" vertex="1" parent="5kDlmlk_hzpcu5QNNVva-1">
          <mxGeometry y="138" width="230" height="26" as="geometry" />
        </mxCell>
        <mxCell id="5kDlmlk_hzpcu5QNNVva-8" value="+ op4p(): AstNode*" style="text;strokeColor=none;fillColor=none;align=left;verticalAlign=top;spacingLeft=4;spacingRight=4;overflow=hidden;rotatable=0;points=[[0,0.5],[1,0.5]];portConstraint=eastwest;" vertex="1" parent="5kDlmlk_hzpcu5QNNVva-1">
          <mxGeometry y="164" width="230" height="26" as="geometry" />
        </mxCell>
        <mxCell id="5kDlmlk_hzpcu5QNNVva-9" value="+ accept(AstNVisitor&amp; v): virtual void =0" style="text;strokeColor=none;fillColor=none;align=left;verticalAlign=top;spacingLeft=4;spacingRight=4;overflow=hidden;rotatable=0;points=[[0,0.5],[1,0.5]];portConstraint=eastwest;fontStyle=2" vertex="1" parent="5kDlmlk_hzpcu5QNNVva-1">
          <mxGeometry y="190" width="230" height="26" as="geometry" />
        </mxCell>
        <mxCell id="5kDlmlk_hzpcu5QNNVva-15" value="op2p" style="edgeStyle=orthogonalEdgeStyle;rounded=0;orthogonalLoop=1;jettySize=auto;html=1;exitX=0.25;exitY=1;exitDx=0;exitDy=0;entryX=0.25;entryY=0;entryDx=0;entryDy=0;curved=1;entryPerimeter=0;" edge="1" parent="1" source="5kDlmlk_hzpcu5QNNVva-10" target="5kDlmlk_hzpcu5QNNVva-12">
          <mxGeometry relative="1" as="geometry" />
        </mxCell>
        <mxCell id="5kDlmlk_hzpcu5QNNVva-16" value="op3p" style="edgeStyle=orthogonalEdgeStyle;rounded=0;orthogonalLoop=1;jettySize=auto;html=1;exitX=0.75;exitY=1;exitDx=0;exitDy=0;entryX=0.75;entryY=0;entryDx=0;entryDy=0;curved=1;" edge="1" parent="1" source="5kDlmlk_hzpcu5QNNVva-10" target="5kDlmlk_hzpcu5QNNVva-13">
          <mxGeometry relative="1" as="geometry" />
        </mxCell>
        <mxCell id="5kDlmlk_hzpcu5QNNVva-18" value="op3p" style="edgeStyle=orthogonalEdgeStyle;rounded=0;orthogonalLoop=1;jettySize=auto;html=1;exitX=1;exitY=0.5;exitDx=0;exitDy=0;entryX=0.5;entryY=0;entryDx=0;entryDy=0;curved=1;" edge="1" parent="1" source="5kDlmlk_hzpcu5QNNVva-10" target="5kDlmlk_hzpcu5QNNVva-14">
          <mxGeometry x="-0.2727" y="-20" relative="1" as="geometry">
            <mxPoint as="offset" />
          </mxGeometry>
        </mxCell>
        <mxCell id="5kDlmlk_hzpcu5QNNVva-19" value="op1p" style="edgeStyle=orthogonalEdgeStyle;rounded=0;orthogonalLoop=1;jettySize=auto;html=1;exitX=0;exitY=0.5;exitDx=0;exitDy=0;entryX=0.5;entryY=0;entryDx=0;entryDy=0;curved=1;" edge="1" parent="1" source="5kDlmlk_hzpcu5QNNVva-10" target="5kDlmlk_hzpcu5QNNVva-11">
          <mxGeometry x="0.1997" y="20" relative="1" as="geometry">
            <mxPoint as="offset" />
          </mxGeometry>
        </mxCell>
        <mxCell id="5kDlmlk_hzpcu5QNNVva-10" value="this" style="rounded=1;whiteSpace=wrap;html=1;" vertex="1" parent="1">
          <mxGeometry x="640" y="60" width="60" height="40" as="geometry" />
        </mxCell>
        <mxCell id="5kDlmlk_hzpcu5QNNVva-20" value="backp" style="edgeStyle=orthogonalEdgeStyle;curved=1;rounded=0;orthogonalLoop=1;jettySize=auto;html=1;exitX=0.75;exitY=0;exitDx=0;exitDy=0;entryX=0;entryY=0.75;entryDx=0;entryDy=0;fontColor=#0000FF;strokeColor=#0000FF;" edge="1" parent="1" source="5kDlmlk_hzpcu5QNNVva-11" target="5kDlmlk_hzpcu5QNNVva-10">
          <mxGeometry x="-0.3142" y="-25" relative="1" as="geometry">
            <mxPoint as="offset" />
          </mxGeometry>
        </mxCell>
        <mxCell id="5kDlmlk_hzpcu5QNNVva-11" value="" style="rounded=1;whiteSpace=wrap;html=1;" vertex="1" parent="1">
          <mxGeometry x="510" y="180" width="60" height="40" as="geometry" />
        </mxCell>
        <mxCell id="5kDlmlk_hzpcu5QNNVva-21" value="backp" style="edgeStyle=orthogonalEdgeStyle;curved=1;rounded=0;orthogonalLoop=1;jettySize=auto;html=1;exitX=0.75;exitY=0;exitDx=0;exitDy=0;entryX=0.5;entryY=1;entryDx=0;entryDy=0;fontColor=#0000FF;strokeColor=#0000FF;" edge="1" parent="1" source="5kDlmlk_hzpcu5QNNVva-12" target="5kDlmlk_hzpcu5QNNVva-10">
          <mxGeometry x="-0.6192" relative="1" as="geometry">
            <mxPoint as="offset" />
          </mxGeometry>
        </mxCell>
        <mxCell id="5kDlmlk_hzpcu5QNNVva-12" value="" style="rounded=1;whiteSpace=wrap;html=1;" vertex="1" parent="1">
          <mxGeometry x="600" y="180" width="60" height="40" as="geometry" />
        </mxCell>
        <mxCell id="5kDlmlk_hzpcu5QNNVva-22" value="backp" style="edgeStyle=orthogonalEdgeStyle;curved=1;rounded=0;orthogonalLoop=1;jettySize=auto;html=1;exitX=0.25;exitY=0;exitDx=0;exitDy=0;entryX=0.5;entryY=1;entryDx=0;entryDy=0;strokeColor=#0000FF;fontColor=#0000FF;" edge="1" parent="1" source="5kDlmlk_hzpcu5QNNVva-13" target="5kDlmlk_hzpcu5QNNVva-10">
          <mxGeometry x="-0.6521" relative="1" as="geometry">
            <mxPoint as="offset" />
          </mxGeometry>
        </mxCell>
        <mxCell id="5kDlmlk_hzpcu5QNNVva-13" value="" style="rounded=1;whiteSpace=wrap;html=1;" vertex="1" parent="1">
          <mxGeometry x="690" y="180" width="60" height="40" as="geometry" />
        </mxCell>
        <mxCell id="5kDlmlk_hzpcu5QNNVva-14" value="" style="rounded=1;whiteSpace=wrap;html=1;" vertex="1" parent="1">
          <mxGeometry x="780" y="180" width="60" height="40" as="geometry" />
        </mxCell>
        <mxCell id="5kDlmlk_hzpcu5QNNVva-23" value="backp" style="edgeStyle=orthogonalEdgeStyle;curved=1;rounded=0;orthogonalLoop=1;jettySize=auto;html=1;exitX=0.25;exitY=0;exitDx=0;exitDy=0;entryX=1;entryY=0.75;entryDx=0;entryDy=0;strokeColor=#0000FF;fontColor=#0000FF;" edge="1" parent="1" source="5kDlmlk_hzpcu5QNNVva-14" target="5kDlmlk_hzpcu5QNNVva-10">
          <mxGeometry x="-0.3513" y="25" relative="1" as="geometry">
            <mxPoint x="745" y="190" as="sourcePoint" />
            <mxPoint x="710" y="110" as="targetPoint" />
            <mxPoint as="offset" />
          </mxGeometry>
        </mxCell>
        <mxCell id="5kDlmlk_hzpcu5QNNVva-24" value="backp" style="edgeStyle=orthogonalEdgeStyle;curved=1;rounded=0;orthogonalLoop=1;jettySize=auto;html=1;exitX=0.25;exitY=0;exitDx=0;exitDy=0;strokeColor=#0000FF;fontColor=#0000FF;" edge="1" parent="1" source="5kDlmlk_hzpcu5QNNVva-10">
          <mxGeometry x="0.0526" relative="1" as="geometry">
            <mxPoint x="805" y="190" as="sourcePoint" />
            <mxPoint x="610" y="20" as="targetPoint" />
            <mxPoint as="offset" />
          </mxGeometry>
        </mxCell>
        <mxCell id="5kDlmlk_hzpcu5QNNVva-25" value="nextp" style="edgeStyle=orthogonalEdgeStyle;curved=1;rounded=0;orthogonalLoop=1;jettySize=auto;html=1;exitX=1;exitY=0.25;exitDx=0;exitDy=0;strokeColor=#009900;fontColor=#009900;" edge="1" parent="1" source="5kDlmlk_hzpcu5QNNVva-10">
          <mxGeometry x="0.0526" relative="1" as="geometry">
            <mxPoint x="695" y="70" as="sourcePoint" />
            <mxPoint x="780" y="70" as="targetPoint" />
            <mxPoint as="offset" />
          </mxGeometry>
        </mxCell>
        <mxCell id="5kDlmlk_hzpcu5QNNVva-44" value="AstNode::addNextHere" style="swimlane;align=center;" vertex="1" parent="1">
          <mxGeometry x="60" y="290" width="660" height="490" as="geometry" />
        </mxCell>
        <mxCell id="5kDlmlk_hzpcu5QNNVva-45" value="this" style="rounded=1;whiteSpace=wrap;html=1;" vertex="1" parent="5kDlmlk_hzpcu5QNNVva-44">
          <mxGeometry x="55" y="90" width="60" height="40" as="geometry" />
        </mxCell>
        <mxCell id="5kDlmlk_hzpcu5QNNVva-46" value="oldnext" style="rounded=1;whiteSpace=wrap;html=1;" vertex="1" parent="5kDlmlk_hzpcu5QNNVva-44">
          <mxGeometry x="215" y="90" width="60" height="40" as="geometry" />
        </mxCell>
        <mxCell id="5kDlmlk_hzpcu5QNNVva-47" value="nextp" style="edgeStyle=orthogonalEdgeStyle;curved=1;rounded=0;orthogonalLoop=1;jettySize=auto;html=1;exitX=1;exitY=0.5;exitDx=0;exitDy=0;strokeColor=#009900;fontColor=#009900;" edge="1" parent="5kDlmlk_hzpcu5QNNVva-44" source="5kDlmlk_hzpcu5QNNVva-45" target="5kDlmlk_hzpcu5QNNVva-46">
          <mxGeometry relative="1" as="geometry">
            <mxPoint x="125" y="-110" as="sourcePoint" />
            <mxPoint x="205" y="-110" as="targetPoint" />
          </mxGeometry>
        </mxCell>
        <mxCell id="5kDlmlk_hzpcu5QNNVva-48" value="headtailp" style="edgeStyle=orthogonalEdgeStyle;curved=1;rounded=0;orthogonalLoop=1;jettySize=auto;html=1;fontColor=#EA6B66;strokeColor=#EA6B66;" edge="1" parent="5kDlmlk_hzpcu5QNNVva-44" target="5kDlmlk_hzpcu5QNNVva-51">
          <mxGeometry relative="1" as="geometry">
            <mxPoint x="115" y="269.9999999999999" as="sourcePoint" />
          </mxGeometry>
        </mxCell>
        <mxCell id="5kDlmlk_hzpcu5QNNVva-49" value="new&lt;br&gt;" style="rounded=1;whiteSpace=wrap;html=1;" vertex="1" parent="5kDlmlk_hzpcu5QNNVva-44">
          <mxGeometry x="55" y="250" width="60" height="40" as="geometry" />
        </mxCell>
        <mxCell id="5kDlmlk_hzpcu5QNNVva-51" value="addlast" style="rounded=1;whiteSpace=wrap;html=1;" vertex="1" parent="5kDlmlk_hzpcu5QNNVva-44">
          <mxGeometry x="215" y="250" width="60" height="40" as="geometry" />
        </mxCell>
        <mxCell id="5kDlmlk_hzpcu5QNNVva-52" value="null" style="rounded=1;whiteSpace=wrap;html=1;fillColor=#bac8d3;strokeColor=#23445d;" vertex="1" parent="5kDlmlk_hzpcu5QNNVva-44">
          <mxGeometry x="215" y="330" width="60" height="40" as="geometry" />
        </mxCell>
        <mxCell id="5kDlmlk_hzpcu5QNNVva-53" value="this" style="rounded=1;whiteSpace=wrap;html=1;" vertex="1" parent="5kDlmlk_hzpcu5QNNVva-44">
          <mxGeometry x="355" y="90" width="60" height="40" as="geometry" />
        </mxCell>
        <mxCell id="5kDlmlk_hzpcu5QNNVva-54" value="oldnext" style="rounded=1;whiteSpace=wrap;html=1;" vertex="1" parent="5kDlmlk_hzpcu5QNNVva-44">
          <mxGeometry x="515" y="90" width="60" height="40" as="geometry" />
        </mxCell>
        <mxCell id="5kDlmlk_hzpcu5QNNVva-55" value="nextp" style="edgeStyle=orthogonalEdgeStyle;curved=1;rounded=0;orthogonalLoop=1;jettySize=auto;html=1;exitX=0.5;exitY=1;exitDx=0;exitDy=0;strokeColor=#009900;fontColor=#009900;entryX=0.5;entryY=0;entryDx=0;entryDy=0;" edge="1" parent="5kDlmlk_hzpcu5QNNVva-44" source="5kDlmlk_hzpcu5QNNVva-53" target="5kDlmlk_hzpcu5QNNVva-57">
          <mxGeometry relative="1" as="geometry">
            <mxPoint x="425" y="-110" as="sourcePoint" />
            <mxPoint x="505" y="-110" as="targetPoint" />
          </mxGeometry>
        </mxCell>
        <mxCell id="5kDlmlk_hzpcu5QNNVva-57" value="new" style="rounded=1;whiteSpace=wrap;html=1;" vertex="1" parent="5kDlmlk_hzpcu5QNNVva-44">
          <mxGeometry x="355" y="250" width="60" height="40" as="geometry" />
        </mxCell>
        <mxCell id="5kDlmlk_hzpcu5QNNVva-50" value="nextp" style="edgeStyle=orthogonalEdgeStyle;curved=1;rounded=0;orthogonalLoop=1;jettySize=auto;html=1;exitX=0.5;exitY=1;exitDx=0;exitDy=0;entryX=0.5;entryY=0;entryDx=0;entryDy=0;fontColor=#009900;strokeColor=#009900;" edge="1" parent="5kDlmlk_hzpcu5QNNVva-44" source="5kDlmlk_hzpcu5QNNVva-51" target="5kDlmlk_hzpcu5QNNVva-52">
          <mxGeometry relative="1" as="geometry" />
        </mxCell>
        <mxCell id="5kDlmlk_hzpcu5QNNVva-58" value="nextp" style="edgeStyle=orthogonalEdgeStyle;curved=1;rounded=0;orthogonalLoop=1;jettySize=auto;html=1;exitX=0.5;exitY=0;exitDx=0;exitDy=0;fontColor=#009900;strokeColor=#009900;" edge="1" parent="5kDlmlk_hzpcu5QNNVva-44" source="5kDlmlk_hzpcu5QNNVva-59" target="5kDlmlk_hzpcu5QNNVva-54">
          <mxGeometry relative="1" as="geometry" />
        </mxCell>
        <mxCell id="5kDlmlk_hzpcu5QNNVva-59" value="addlast" style="rounded=1;whiteSpace=wrap;html=1;" vertex="1" parent="5kDlmlk_hzpcu5QNNVva-44">
          <mxGeometry x="515" y="250" width="60" height="40" as="geometry" />
        </mxCell>
        <mxCell id="5kDlmlk_hzpcu5QNNVva-60" value="null" style="rounded=1;whiteSpace=wrap;html=1;fillColor=#bac8d3;strokeColor=#23445d;" vertex="1" parent="5kDlmlk_hzpcu5QNNVva-44">
          <mxGeometry x="515" y="330" width="60" height="40" as="geometry" />
        </mxCell>
        <mxCell id="5kDlmlk_hzpcu5QNNVva-56" value="headtailp" style="edgeStyle=orthogonalEdgeStyle;curved=1;rounded=0;orthogonalLoop=1;jettySize=auto;html=1;entryX=0;entryY=0.5;entryDx=0;entryDy=0;fontColor=#EA6B66;strokeColor=#EA6B66;" edge="1" parent="5kDlmlk_hzpcu5QNNVva-44" source="5kDlmlk_hzpcu5QNNVva-57" target="5kDlmlk_hzpcu5QNNVva-59">
          <mxGeometry relative="1" as="geometry" />
        </mxCell>
        <mxCell id="5kDlmlk_hzpcu5QNNVva-61" value="backp" style="edgeStyle=orthogonalEdgeStyle;curved=1;rounded=0;orthogonalLoop=1;jettySize=auto;html=1;exitX=0.5;exitY=1;exitDx=0;exitDy=0;entryX=0;entryY=0.5;entryDx=0;entryDy=0;fontColor=#0000FF;strokeColor=#0000FF;" edge="1" parent="5kDlmlk_hzpcu5QNNVva-44" source="5kDlmlk_hzpcu5QNNVva-49" target="5kDlmlk_hzpcu5QNNVva-52">
          <mxGeometry x="-0.6192" relative="1" as="geometry">
            <mxPoint x="-75" y="220" as="sourcePoint" />
            <mxPoint x="-50" y="140" as="targetPoint" />
            <mxPoint as="offset" />
          </mxGeometry>
        </mxCell>
        <mxCell id="5kDlmlk_hzpcu5QNNVva-62" value="&lt;span style=&quot;color: rgb(0, 0, 0); font-family: helvetica; font-size: 12px; font-style: normal; font-weight: 400; letter-spacing: normal; text-indent: 0px; text-transform: none; word-spacing: 0px; background-color: rgb(248, 249, 250); display: inline; float: none;&quot;&gt;list头结点&lt;/span&gt;" style="text;whiteSpace=wrap;html=1;fontColor=#009900;align=center;verticalAlign=middle;" vertex="1" parent="5kDlmlk_hzpcu5QNNVva-44">
          <mxGeometry x="50" y="230" width="70" height="20" as="geometry" />
        </mxCell>
      </root>
    </mxGraphModel>
  </diagram>
</mxfile>
